<svg xmlns="http://www.w3.org/2000/svg" xmlns:xlink="http://www.w3.org/1999/xlink" id="Layer_1" x="0px" y="0px" viewBox="0 0 265 134" style="enable-background:new 0 0 265 134;" xml:space="preserve"><style type="text/css"> .st0{fill:#02568E;} .st1{fill:#EF8807;} .st2{fill:#FFFFFF;}</style><g> <path class="st0" d="M72.04,108.34h-22.6c2.73-1.16,4.5-3.85,4.49-6.81V54.94l-21.4,47.71h-1.47L9.67,54.94V83.2 c0,13.2,4.92,24.07,7.5,25.19H0.87c2.59-1.12,7.42-11.97,7.42-25.19V61.26c0-9.14-5.69-13.11-8.28-14.24h21.13l17.43,38.8L55.99,47 h16.05c-2.67,1.17-4.4,3.81-4.4,6.73v47.8C67.63,104.47,69.35,107.14,72.04,108.34z"></path> <path class="st0" d="M183.85,87.73c1.12,11.97-7.85,20.61-21.22,20.61c-7.68,0-13.2-4.49-16.82,0V90.57 c3.36,6.98,11.39,16.39,18.29,16.39c7.5,0,10.18-7.68,7.68-13.46c-4.14-9.48-24.93-10.26-27.87-28.12 C141.91,53.47,152.19,47,162.97,47c8.63,0,13.2,4.49,16.82,0v16.39c-4.05-6.3-11.56-14.96-18.29-14.96c-5.77,0-8.2,6.72-6.64,11.21 C159.99,74.52,182.56,73.84,183.85,87.73z"></path> <path class="st0" d="M263.4,108.34h-22.64c2.73-1.16,4.5-3.85,4.49-6.81V54.94l-21.37,47.71h-1.47l-21.39-47.71V83.2 c0,13.2,4.92,24.07,7.5,25.19h-16.3c2.59-1.12,7.42-11.97,7.42-25.19V61.26c0-9.14-5.69-13.11-8.28-14.24h21.13l17.43,38.82 L247.35,47h16.06c-2.68,1.16-4.41,3.81-4.41,6.73v47.8C258.99,104.47,260.71,107.14,263.4,108.34z"></path> <path class="st0" d="M6.13,133.84c-0.42-0.94-0.84-1.88-1.27-2.82c-0.43-0.94-0.84-1.89-1.25-2.86l-0.39-0.91 c-0.13-0.31-0.25-0.62-0.37-0.94l-0.36-0.93c0,0.1,0,0.2,0,0.31s0,0.21,0,0.31c0,0.34,0,0.75,0,1.23c0,0.48,0,1-0.05,1.54 s0,1.09,0,1.63s0,1.06,0,1.55c0,0.2,0,0.41,0,0.62c0,0.21,0,0.4,0,0.58h0.53h0.54v0.62H0.63v-0.47c0.23,0.01,0.46-0.05,0.65-0.19 c0.14-0.12,0.23-0.29,0.26-0.47c0.04-0.21,0.06-0.42,0.07-0.64l0.27-6.47c0-0.19,0-0.38,0-0.57c0-0.19,0-0.37,0-0.55H1.37H0.86 v-0.61h2.17l2.43,5.62c0.13,0.29,0.25,0.57,0.36,0.86l0.37,0.85c0.13,0.28,0.26,0.57,0.38,0.87l0,0c0.1-0.26,0.23-0.56,0.37-0.92 c0.14-0.36,0.26-0.66,0.35-0.92c0.42-1,0.86-2.07,1.31-3.12c0.45-1.05,0.89-2.12,1.33-3.24h2.09v0.47c-0.2-0.02-0.4,0.03-0.58,0.13 c-0.16,0.12-0.28,0.29-0.33,0.49c-0.07,0.3-0.1,0.62-0.07,0.93l0.37,6.45c0.01,0.16,0.01,0.31,0,0.47v0.41h0.52h0.51v0.62H9.41 v-0.47c0.23,0.01,0.46-0.07,0.65-0.21c0.16-0.15,0.25-0.35,0.27-0.57c0.03-0.3,0.03-0.61,0-0.91l-0.29-4.68c0-0.15,0-0.3,0-0.46 v-0.45v-0.46l-0.09,0.22c-0.04,0.08-0.07,0.16-0.1,0.24l-3.19,7.88L6.13,133.84z"></path> <path class="st0" d="M17.07,133.93c-0.62,0.01-1.23-0.15-1.77-0.46c-0.52-0.31-0.95-0.77-1.24-1.31c-0.31-0.62-0.47-1.3-0.45-1.99 c-0.01-0.64,0.14-1.28,0.44-1.85c0.29-0.57,0.72-1.05,1.26-1.4c0.56-0.36,1.21-0.54,1.87-0.53c0.38,0,0.76,0.06,1.12,0.19 c0.34,0.13,0.65,0.32,0.91,0.58c0.28,0.28,0.5,0.62,0.63,1c0.16,0.44,0.24,0.91,0.23,1.39l-4.99,0.08 c-0.01,0.64,0.07,1.28,0.23,1.89c0.12,0.49,0.39,0.93,0.77,1.27c0.38,0.31,0.86,0.46,1.35,0.44c0.31,0,0.61-0.05,0.9-0.15 c0.3-0.11,0.59-0.25,0.86-0.43c0.24-0.16,0.46-0.36,0.64-0.6l0.34,0.29c-0.24,0.38-0.55,0.7-0.92,0.95 c-0.34,0.23-0.71,0.4-1.11,0.51C17.79,133.88,17.43,133.93,17.07,133.93z M15.08,129.01h3.62c0-0.34-0.05-0.67-0.15-1 c-0.09-0.3-0.26-0.57-0.49-0.78c-0.25-0.21-0.57-0.33-0.9-0.31c-0.5-0.01-0.99,0.16-1.37,0.49c-0.4,0.44-0.63,1-0.68,1.6H15.08z"></path> <path class="st0" d="M21.38,133.7v-0.42c0.23,0.02,0.45-0.06,0.61-0.22c0.13-0.18,0.2-0.4,0.2-0.62c0-0.26,0-0.56,0-0.9v-3.23 c0-0.15,0-0.3,0-0.46c-0.01-0.16-0.01-0.31,0-0.47h-0.5h-0.51v-0.6c0.32,0.01,0.63-0.01,0.95-0.05c0.16-0.03,0.32-0.07,0.47-0.14 c0.1-0.05,0.18-0.11,0.26-0.19h0.41c0.01,0.08,0.01,0.15,0,0.23c0,0.08,0,0.18,0,0.28s0,0.23,0,0.36c0.22-0.18,0.45-0.35,0.69-0.49 c0.25-0.14,0.51-0.25,0.79-0.34c0.27-0.08,0.55-0.12,0.84-0.12c0.69-0.06,1.36,0.23,1.79,0.77c0.43,0.72,0.63,1.56,0.57,2.4v2.64 c0,0.18,0,0.35,0,0.5c0.01,0.15,0.01,0.31,0,0.46h0.45h0.45v0.58h-2.89v-0.42c0.23,0.02,0.45-0.06,0.61-0.22 c0.12-0.18,0.19-0.4,0.2-0.62c0-0.26,0-0.56,0-0.9v-1.99c0.03-0.64-0.11-1.28-0.41-1.84c-0.26-0.41-0.74-0.65-1.23-0.61 c-0.35,0.01-0.69,0.11-1,0.27c-0.3,0.19-0.55,0.44-0.75,0.73c0.01,0.09,0.01,0.17,0,0.26v0.3v3.62v0.5c0,0.15,0,0.3,0,0.46h0.44 h0.45v0.58L21.38,133.7z"></path> <path class="st0" d="M32.93,133.93c-0.45,0.02-0.89-0.08-1.29-0.28c-0.37-0.23-0.64-0.58-0.78-1c-0.19-0.6-0.28-1.22-0.26-1.84 v-2.52c0-0.15,0-0.3,0-0.46c0-0.16,0.02-0.31,0.05-0.47h-0.49h-0.49v-0.59h0.44c0.3,0.01,0.6-0.03,0.89-0.12 c0.16-0.06,0.3-0.15,0.43-0.26h0.41v4.33c-0.04,0.62,0.08,1.25,0.35,1.81c0.24,0.41,0.71,0.64,1.19,0.59c0.36-0.01,0.7-0.13,1-0.33 c0.31-0.2,0.58-0.46,0.79-0.76v-3.56c0-0.23,0-0.43,0-0.59c0.01-0.17,0.03-0.33,0.06-0.5h-0.51h-0.52v-0.59h0.44 c0.3,0.02,0.6-0.02,0.89-0.12c0.16-0.06,0.31-0.15,0.44-0.26h0.41v5.36c0,0.15,0,0.36,0,0.64s0,0.5,0,0.69h0.51h0.51v0.59h-2.04 c0-0.16,0-0.31-0.07-0.45c-0.07-0.14,0-0.28,0-0.4c-0.31,0.31-0.67,0.56-1.07,0.76C33.81,133.82,33.37,133.93,32.93,133.93z"></path> <path class="st0" d="M38.4,133.28c0.23,0.02,0.45-0.06,0.61-0.22c0.13-0.18,0.2-0.4,0.2-0.62c0-0.26,0-0.56,0-0.9v-3.23 c0-0.15,0-0.3,0-0.43c0-0.13,0-0.31,0-0.5H38.7h-0.5v-0.6c0.33,0.01,0.67-0.01,1-0.05c0.18-0.03,0.35-0.07,0.52-0.14 c0.1-0.05,0.2-0.11,0.28-0.19h0.41v5.73c0,0.18,0,0.35,0,0.5c0.01,0.15,0.01,0.31,0,0.46h0.45h0.45v0.58h-2.89L38.4,133.28z M39.76,125.08c-0.2,0-0.39-0.09-0.52-0.24c-0.31-0.34-0.31-0.86,0-1.2c0.13-0.16,0.32-0.25,0.53-0.25c0.21,0,0.41,0.09,0.55,0.25 c0.14,0.17,0.22,0.38,0.22,0.6c0.01,0.22-0.08,0.44-0.24,0.6C40.16,124.99,39.96,125.08,39.76,125.08z"></path> <path class="st0" d="M45.31,133.93c-0.77,0.02-1.53-0.2-2.17-0.63l0.06,0.5h-0.6l-0.08-2.43h0.44c0.02,0.36,0.13,0.7,0.33,1 c0.38,0.62,1.04,0.99,1.77,1c0.25,0,0.5-0.04,0.73-0.13c0.23-0.07,0.43-0.2,0.6-0.37c0.16-0.17,0.25-0.39,0.24-0.63 c0-0.24-0.08-0.47-0.24-0.66c-0.17-0.19-0.38-0.34-0.61-0.46c-0.27-0.14-0.55-0.26-0.83-0.37c-0.28-0.11-0.57-0.23-0.85-0.36 c-0.28-0.12-0.54-0.26-0.79-0.44c-0.23-0.16-0.43-0.37-0.58-0.62c-0.15-0.28-0.22-0.59-0.21-0.91c0.01-0.22,0.04-0.44,0.11-0.66 c0.09-0.25,0.22-0.47,0.39-0.67c0.2-0.23,0.45-0.41,0.74-0.53c0.38-0.15,0.78-0.22,1.19-0.2c0.29,0,0.57,0.04,0.85,0.12 c0.33,0.1,0.64,0.26,0.91,0.49v-0.54h0.59v2.47h-0.45c-0.02-0.34-0.09-0.68-0.23-1c-0.13-0.3-0.33-0.56-0.58-0.76 c-0.29-0.22-0.64-0.33-1-0.31c-0.36-0.02-0.72,0.1-1,0.33c-0.43,0.34-0.5,0.97-0.16,1.4c0.02,0.03,0.04,0.05,0.07,0.07 c0.2,0.21,0.44,0.39,0.71,0.51c0.3,0.14,0.61,0.28,0.94,0.41c0.33,0.13,0.71,0.32,1,0.5c0.32,0.16,0.61,0.39,0.84,0.67 c0.23,0.3,0.35,0.67,0.33,1.05c0.02,0.42-0.11,0.84-0.36,1.18c-0.24,0.31-0.56,0.55-0.93,0.69 C46.11,133.82,45.71,133.91,45.31,133.93z"></path> <path class="st0" d="M52.38,133.93c-0.62,0.01-1.23-0.15-1.77-0.46c-0.53-0.31-0.96-0.76-1.24-1.31c-0.32-0.61-0.48-1.3-0.46-1.99 c0-0.65,0.15-1.28,0.45-1.85c0.29-0.57,0.72-1.05,1.26-1.4c0.55-0.36,1.2-0.54,1.86-0.53c0.38,0,0.76,0.06,1.12,0.19 c0.34,0.13,0.66,0.32,0.92,0.58c0.27,0.28,0.49,0.62,0.62,1c0.16,0.44,0.24,0.91,0.23,1.39l-4.99,0.08 c-0.01,0.64,0.06,1.28,0.23,1.89c0.12,0.49,0.39,0.93,0.76,1.27c0.38,0.31,0.86,0.46,1.35,0.44c0.31,0,0.61-0.05,0.9-0.15 c0.3-0.1,0.59-0.25,0.86-0.43c0.25-0.16,0.46-0.36,0.64-0.6l0.35,0.29c-0.24,0.38-0.56,0.7-0.93,0.95 c-0.34,0.23-0.71,0.4-1.11,0.51C53.09,133.88,52.74,133.93,52.38,133.93z M50.39,129.01H54c0-0.34-0.05-0.67-0.15-1 c-0.09-0.3-0.26-0.57-0.49-0.78c-0.24-0.22-0.56-0.33-0.89-0.31c-0.5-0.01-0.99,0.16-1.37,0.49c-0.4,0.44-0.64,1-0.68,1.6H50.39z"></path> <path class="st0" d="M56.64,133.28c0.24,0.03,0.47-0.05,0.64-0.22c0.12-0.18,0.19-0.4,0.2-0.62c0-0.26,0-0.56,0-0.9v-3.23 c0-0.15,0-0.3,0-0.46c-0.01-0.16-0.01-0.31,0-0.47h-0.5h-0.51v-0.59h0.44c0.29,0.02,0.58-0.02,0.85-0.12 c0.14-0.07,0.27-0.15,0.39-0.26h0.41c0,0.15,0,0.34,0,0.56c0,0.22,0,0.51,0,0.85c0.16-0.26,0.36-0.49,0.59-0.7 c0.24-0.23,0.52-0.42,0.83-0.57c0.31-0.15,0.65-0.23,1-0.22c0.25-0.01,0.49,0.07,0.7,0.21c0.21,0.16,0.32,0.42,0.3,0.68 c-0.01,0.1-0.03,0.19-0.07,0.28c-0.05,0.11-0.13,0.21-0.23,0.28c-0.12,0.08-0.26,0.13-0.41,0.12c-0.2,0-0.38-0.09-0.5-0.25 c-0.12-0.15-0.17-0.35-0.14-0.54c-0.26-0.01-0.51,0.06-0.74,0.18c-0.26,0.15-0.49,0.33-0.7,0.55c-0.23,0.24-0.42,0.52-0.58,0.82 v3.49c0,0.18,0,0.35,0,0.5c0.01,0.15,0.01,0.31,0,0.46h0.45h0.45v0.58h-2.86V133.28z"></path> <path class="st0" d="M62.77,133.28c0.23,0.02,0.45-0.06,0.61-0.22c0.13-0.18,0.2-0.4,0.2-0.62c0-0.26,0-0.56,0-0.9v-3.23 c0-0.15,0-0.3,0-0.43c0-0.13,0-0.31,0-0.5h-0.51h-0.5v-0.6c0.33,0.01,0.67-0.01,1-0.05c0.17-0.03,0.34-0.07,0.51-0.14 c0.1-0.05,0.2-0.11,0.28-0.19h0.41v6.23c0.01,0.15,0.01,0.31,0,0.46h0.45h0.44v0.58h-2.89L62.77,133.28z M64.14,125.08 c-0.2,0-0.39-0.09-0.53-0.24c-0.31-0.34-0.31-0.86,0-1.2c0.13-0.16,0.32-0.25,0.53-0.25c0.21,0,0.41,0.09,0.55,0.25 c0.15,0.16,0.22,0.38,0.22,0.6c0.01,0.22-0.08,0.44-0.24,0.6C64.53,124.99,64.34,125.08,64.14,125.08z"></path> <path class="st0" d="M70.24,133.93c-1.25,0.02-2.41-0.66-2.99-1.77c-0.31-0.62-0.47-1.3-0.45-1.99c0-0.65,0.15-1.28,0.45-1.85 c0.29-0.57,0.72-1.05,1.26-1.4c0.55-0.36,1.2-0.54,1.86-0.53c0.38,0,0.76,0.06,1.12,0.19c0.34,0.13,0.65,0.33,0.92,0.58 c0.27,0.28,0.49,0.62,0.62,1c0.16,0.44,0.24,0.91,0.23,1.39l-4.99,0.08c-0.01,0.64,0.07,1.28,0.24,1.89 c0.12,0.49,0.38,0.93,0.76,1.27c0.38,0.31,0.86,0.46,1.35,0.44c0.31,0,0.61-0.05,0.9-0.15c0.3-0.1,0.59-0.25,0.86-0.43 c0.25-0.16,0.46-0.36,0.64-0.6l0.34,0.29c-0.23,0.38-0.55,0.7-0.92,0.95c-0.34,0.23-0.71,0.4-1.11,0.51 C70.97,133.89,70.61,133.93,70.24,133.93z M68.25,129.01h3.61c0-0.34-0.05-0.67-0.15-1c-0.09-0.3-0.26-0.57-0.49-0.78 c-0.24-0.21-0.56-0.33-0.89-0.31c-0.5-0.02-1,0.16-1.38,0.49C68.54,127.85,68.29,128.41,68.25,129.01z"></path> <path class="st0" d="M83.04,133.93c-0.87,0.02-1.74-0.19-2.51-0.6c-0.72-0.39-1.31-0.99-1.7-1.72c-0.42-0.82-0.63-1.74-0.61-2.66 c0-0.68,0.1-1.35,0.3-1.99c0.2-0.63,0.51-1.22,0.93-1.74c0.42-0.53,0.94-0.95,1.55-1.25c0.67-0.31,1.41-0.47,2.15-0.46 c0.33,0,0.67,0.03,1,0.09c0.34,0.07,0.67,0.16,1,0.27c0.31,0.11,0.61,0.25,0.89,0.42l-0.06-0.68h0.78v3.25h-0.51 c-0.02-0.54-0.19-1.06-0.48-1.52c-0.27-0.4-0.64-0.73-1.08-0.94c-0.46-0.22-0.97-0.33-1.48-0.33c-0.49,0-0.97,0.11-1.41,0.33 c-0.45,0.23-0.84,0.55-1.17,0.94c-0.34,0.43-0.61,0.91-0.79,1.43c-0.19,0.59-0.29,1.2-0.28,1.81c-0.01,0.82,0.15,1.63,0.48,2.38 c0.29,0.66,0.76,1.23,1.35,1.65c0.58,0.41,1.28,0.62,1.99,0.6c0.27,0,0.53-0.03,0.8-0.07c0.29-0.05,0.57-0.13,0.84-0.24 c0.28-0.1,0.54-0.24,0.79-0.4v-3.11h-0.5h-0.49v-0.63h3.2v0.47c-0.22-0.02-0.44,0.06-0.61,0.21c-0.14,0.14-0.24,0.31-0.3,0.5 c-0.06,0.18-0.09,0.38-0.1,0.57c0,0.18,0,0.32,0,0.42v2.16h-0.39c-0.21,0.01-0.42,0.04-0.62,0.09c-0.31,0.07-0.61,0.16-0.91,0.28 c-0.32,0.12-0.66,0.21-1,0.27C83.75,133.83,83.4,133.9,83.04,133.93z"></path> <path class="st0" d="M92.4,133.93c-0.62,0.01-1.23-0.15-1.77-0.46c-0.53-0.31-0.96-0.76-1.25-1.31c-0.31-0.62-0.47-1.3-0.45-1.99 c0-0.64,0.15-1.28,0.44-1.85c0.29-0.57,0.72-1.05,1.26-1.4c0.56-0.36,1.21-0.54,1.87-0.53c0.38,0,0.76,0.06,1.12,0.19 c0.34,0.13,0.65,0.32,0.91,0.58c0.28,0.28,0.5,0.62,0.63,1c0.16,0.44,0.24,0.91,0.23,1.39l-4.99,0.08 c-0.01,0.64,0.07,1.28,0.24,1.89c0.11,0.49,0.38,0.93,0.76,1.27c0.38,0.31,0.86,0.46,1.35,0.44c0.31,0,0.61-0.05,0.9-0.15 c0.3-0.11,0.59-0.25,0.86-0.43c0.24-0.16,0.46-0.36,0.64-0.6l0.34,0.29c-0.23,0.38-0.55,0.7-0.92,0.95 c-0.34,0.23-0.71,0.4-1.11,0.51C93.11,133.88,92.76,133.93,92.4,133.93z M90.41,129.01h3.62c0-0.34-0.05-0.67-0.15-1 c-0.09-0.3-0.26-0.57-0.49-0.78c-0.25-0.21-0.57-0.33-0.9-0.31c-0.5-0.01-0.99,0.16-1.37,0.49c-0.4,0.44-0.64,1-0.69,1.6H90.41z"></path> <path class="st0" d="M96.65,133.7v-0.42c0.23,0.02,0.45-0.06,0.61-0.22c0.13-0.18,0.2-0.4,0.2-0.62c0-0.26,0-0.56,0-0.9v-3.23 c0-0.15,0-0.3,0-0.46c-0.01-0.16-0.01-0.31,0-0.47h-0.5h-0.51v-0.6c0.33,0.01,0.67,0,1-0.05c0.16-0.03,0.32-0.07,0.47-0.14 c0.1-0.05,0.18-0.11,0.26-0.19h0.41c0.01,0.08,0.01,0.15,0,0.23c0,0.08,0,0.18,0,0.28s0,0.23,0,0.36c0.22-0.18,0.45-0.35,0.69-0.49 c0.25-0.14,0.51-0.25,0.79-0.34c0.27-0.08,0.55-0.12,0.84-0.12c0.69-0.06,1.36,0.23,1.79,0.77c0.43,0.72,0.63,1.56,0.57,2.4v2.64 c0,0.18,0,0.35,0,0.5c0.01,0.15,0.01,0.31,0,0.46h0.45h0.45v0.58h-2.89v-0.42c0.23,0.02,0.45-0.06,0.61-0.22 c0.12-0.18,0.19-0.4,0.2-0.62c0-0.26,0-0.56,0-0.9v-1.99c0.03-0.64-0.11-1.28-0.41-1.84c-0.26-0.41-0.74-0.65-1.23-0.61 c-0.35,0.01-0.69,0.11-1,0.27c-0.31,0.16-0.59,0.38-0.82,0.65c0.01,0.09,0.01,0.17,0,0.26v0.3v3.62v0.5c0,0.15,0,0.3-0.05,0.46 h0.44h0.45v0.58L96.65,133.7z"></path> <path class="st0" d="M108.69,133.93c-0.62,0.01-1.23-0.15-1.77-0.46c-0.52-0.31-0.95-0.77-1.24-1.31c-0.32-0.61-0.48-1.3-0.46-1.99 c0-0.65,0.15-1.28,0.45-1.85c0.29-0.57,0.72-1.05,1.26-1.4c0.56-0.36,1.21-0.54,1.87-0.53c0.38,0,0.75,0.06,1.11,0.19 c0.34,0.13,0.66,0.32,0.92,0.58c0.28,0.28,0.49,0.62,0.63,1c0.16,0.44,0.23,0.91,0.22,1.39l-4.99,0.08 c-0.01,0.64,0.07,1.28,0.23,1.89c0.12,0.49,0.39,0.93,0.76,1.27c0.38,0.31,0.86,0.46,1.35,0.44c0.31,0,0.61-0.05,0.91-0.15 c0.3-0.11,0.59-0.25,0.86-0.43c0.24-0.16,0.46-0.36,0.64-0.6l0.34,0.29c-0.24,0.38-0.56,0.7-0.93,0.95 c-0.34,0.23-0.71,0.4-1.1,0.51C109.4,133.88,109.04,133.93,108.69,133.93z M106.69,129.01h3.62c0-0.34-0.05-0.67-0.15-1 c-0.09-0.3-0.26-0.57-0.49-0.78c-0.25-0.21-0.57-0.33-0.9-0.31c-0.5-0.01-0.99,0.16-1.37,0.49c-0.4,0.44-0.64,1-0.68,1.6H106.69z"></path> <path class="st0" d="M112.94,133.28c0.23,0.02,0.45-0.06,0.61-0.22c0.12-0.18,0.19-0.4,0.2-0.62c0-0.26,0-0.56,0-0.9v-3.69 c0-0.15,0-0.3,0.05-0.47h-0.5h-0.51v-0.59h0.45c0.28,0.02,0.57-0.02,0.84-0.12c0.14-0.07,0.27-0.15,0.39-0.26h0.42 c0,0.15,0,0.34,0,0.56s0,0.51,0,0.85c0.16-0.26,0.35-0.5,0.58-0.7c0.25-0.23,0.53-0.42,0.83-0.57c0.31-0.15,0.65-0.23,1-0.22 c0.25-0.01,0.49,0.07,0.7,0.21c0.21,0.16,0.32,0.42,0.3,0.68c0,0.1-0.03,0.19-0.07,0.28c-0.05,0.11-0.13,0.21-0.23,0.28 c-0.12,0.08-0.26,0.13-0.41,0.12c-0.2,0-0.38-0.09-0.5-0.25c-0.12-0.15-0.17-0.35-0.14-0.54c-0.25-0.01-0.51,0.06-0.73,0.18 c-0.26,0.15-0.5,0.33-0.71,0.55c-0.23,0.25-0.42,0.52-0.58,0.82v3.99c0.01,0.15,0.01,0.31,0,0.46h0.45h0.44v0.58h-2.9 L112.94,133.28z"></path> <path class="st0" d="M123.39,133.7c-0.03-0.14-0.05-0.28-0.06-0.42c0-0.13,0-0.26,0-0.39c-0.29,0.31-0.63,0.56-1,0.76 c-0.36,0.19-0.77,0.28-1.18,0.28c-0.58,0.05-1.15-0.13-1.61-0.49c-0.34-0.3-0.53-0.74-0.53-1.2c-0.01-0.41,0.14-0.81,0.41-1.13 c0.27-0.33,0.61-0.59,1-0.78c0.45-0.21,0.92-0.37,1.41-0.46c0.48-0.1,0.97-0.14,1.47-0.13v-0.89c0-0.31-0.03-0.62-0.09-0.93 c-0.04-0.28-0.17-0.53-0.37-0.73c-0.25-0.21-0.57-0.32-0.9-0.3c-0.29-0.01-0.58,0.05-0.85,0.16c-0.28,0.1-0.5,0.31-0.63,0.58 c0.07,0.07,0.12,0.16,0.15,0.26c0.01,0.09,0.01,0.19,0,0.28c-0.01,0.14-0.06,0.28-0.14,0.39c-0.22,0.28-0.62,0.32-0.9,0.1 c-0.04-0.03-0.07-0.06-0.1-0.1c-0.11-0.14-0.16-0.31-0.16-0.49c0-0.32,0.13-0.64,0.36-0.87c0.28-0.28,0.62-0.48,1-0.61 c0.47-0.15,0.96-0.23,1.45-0.22c0.65-0.06,1.3,0.17,1.77,0.63c0.42,0.57,0.62,1.28,0.55,1.99v2.11c0,0.36,0,0.72,0,1.08 c0,0.15,0,0.3,0,0.45c0,0.15,0,0.32,0,0.51h0.51h0.5v0.59L123.39,133.7z M123.26,130.23c-0.34,0.01-0.67,0.05-1,0.12 c-0.34,0.07-0.68,0.17-1,0.32c-0.28,0.13-0.53,0.32-0.72,0.56c-0.19,0.24-0.29,0.54-0.27,0.85c0,0.3,0.13,0.59,0.35,0.79 c0.22,0.17,0.48,0.26,0.76,0.26c0.35,0.01,0.69-0.07,1-0.22c0.31-0.16,0.6-0.37,0.86-0.62c0-0.1,0-0.22,0-0.34v-0.88 C123.26,130.85,123.26,130.56,123.26,130.23z"></path> <path class="st0" d="M126.26,133.28c0.23,0.02,0.45-0.06,0.61-0.22c0.13-0.18,0.2-0.4,0.2-0.62c0-0.26,0-0.56,0-0.9v-6.7 c0-0.16,0-0.3,0-0.44c-0.01-0.16-0.01-0.33,0-0.49h-0.5h-0.51v-0.6c0.33,0.01,0.67-0.01,1-0.06c0.18-0.02,0.35-0.07,0.52-0.14 c0.1-0.05,0.19-0.11,0.28-0.18h0.41v9.2c0,0.18,0,0.35,0,0.5c-0.01,0.15-0.03,0.31-0.06,0.46h0.45h0.45v0.58h-2.89L126.26,133.28z"></path> <path class="st0" d="M133.69,133.93c-0.62,0.01-1.23-0.15-1.77-0.46c-0.53-0.31-0.96-0.76-1.24-1.31c-0.32-0.61-0.48-1.3-0.46-1.99 c0-0.65,0.15-1.28,0.45-1.85c0.29-0.57,0.72-1.05,1.26-1.4c0.55-0.36,1.2-0.54,1.86-0.53c0.38,0,0.76,0.06,1.12,0.19 c0.34,0.13,0.66,0.32,0.92,0.58c0.27,0.28,0.49,0.62,0.62,1c0.16,0.44,0.24,0.91,0.23,1.39l-4.99,0.08 c-0.01,0.64,0.06,1.28,0.23,1.89c0.12,0.49,0.39,0.93,0.76,1.27c0.38,0.31,0.86,0.46,1.35,0.44c0.31,0,0.61-0.05,0.9-0.15 c0.31-0.11,0.6-0.25,0.87-0.43c0.24-0.16,0.45-0.36,0.63-0.6l0.35,0.29c-0.24,0.38-0.56,0.7-0.93,0.95 c-0.34,0.23-0.71,0.4-1.11,0.51C134.39,133.88,134.04,133.93,133.69,133.93z M131.69,129.01h3.61c0-0.34-0.05-0.67-0.15-1 c-0.08-0.3-0.25-0.57-0.49-0.78c-0.24-0.22-0.56-0.33-0.89-0.31c-0.5-0.01-0.99,0.16-1.37,0.49c-0.4,0.44-0.64,1-0.68,1.6H131.69z"></path> <path class="st0" d="M144.88,133.93c-0.41,0-0.82-0.05-1.22-0.15c-0.38-0.09-0.74-0.25-1.07-0.48c-0.32-0.22-0.58-0.52-0.76-0.87 c-0.2-0.4-0.3-0.84-0.29-1.29c-0.01-0.6,0.21-1.18,0.61-1.63c0.44-0.51,0.99-0.9,1.62-1.15c-0.22-0.29-0.42-0.59-0.61-0.91 c-0.15-0.26-0.27-0.54-0.35-0.84c-0.08-0.28-0.12-0.57-0.12-0.86c-0.02-0.63,0.27-1.23,0.76-1.62c0.53-0.42,1.19-0.64,1.86-0.61 c0.43-0.01,0.86,0.08,1.26,0.26c0.34,0.16,0.62,0.41,0.83,0.72c0.19,0.3,0.29,0.64,0.29,1c0,0.35-0.08,0.69-0.23,1 c-0.18,0.36-0.43,0.67-0.74,0.93c-0.41,0.35-0.87,0.65-1.36,0.89l0.84,0.88c0.31,0.33,0.62,0.64,0.93,1l0.86,0.83 c0.04-0.16,0.08-0.32,0.1-0.49c0.01-0.14,0.01-0.28,0-0.42c0-0.22-0.03-0.44-0.09-0.65c-0.06-0.21-0.17-0.39-0.33-0.54 c-0.18-0.15-0.42-0.23-0.66-0.23v-0.47h2.48v0.58l-1.18-0.05c0.15,0.12,0.26,0.29,0.32,0.48c0.07,0.23,0.12,0.46,0.12,0.7 c0,0.23-0.01,0.46-0.05,0.69c-0.04,0.3-0.13,0.59-0.24,0.87c0.11,0.09,0.22,0.2,0.34,0.31l0.37,0.33c0.34,0.31,0.71,0.6,1.11,0.85 c0.2,0.14,0.44,0.24,0.69,0.27v0.47h-1.33c-0.2-0.05-0.39-0.14-0.57-0.26c-0.42-0.27-0.82-0.58-1.19-0.92 c-0.73,0.94-1.87,1.46-3.05,1.41L144.88,133.93z M145.05,133.22c0.95,0.09,1.87-0.33,2.43-1.1l-0.2-0.19l-0.22-0.19l-1.68-1.68 c-0.49-0.49-0.9-0.92-1.25-1.31c-0.29,0.16-0.53,0.39-0.71,0.67c-0.16,0.24-0.28,0.51-0.36,0.79c-0.07,0.23-0.1,0.46-0.11,0.7 c-0.02,0.45,0.09,0.89,0.31,1.28c0.18,0.32,0.45,0.57,0.78,0.74c0.3,0.16,0.64,0.26,0.98,0.29L145.05,133.22z M145.05,128.01 c0.48-0.29,0.88-0.69,1.18-1.17c0.24-0.38,0.38-0.82,0.39-1.27c0.02-0.41-0.11-0.81-0.36-1.14c-0.24-0.3-0.61-0.46-1-0.44 c-0.38-0.02-0.75,0.14-1,0.43c-0.28,0.35-0.42,0.78-0.39,1.23c0,0.42,0.12,0.84,0.33,1.21c0.23,0.41,0.51,0.8,0.83,1.15 L145.05,128.01z"></path> <path class="st0" d="M158.16,133.93c-0.43,0.01-0.85-0.06-1.26-0.19c-0.32-0.1-0.63-0.25-0.91-0.44v0.5h-0.59l-0.09-2.43h0.44 c0.06,1.12,0.99,1.99,2.1,1.99c0.25,0,0.49-0.04,0.72-0.13c0.23-0.07,0.43-0.2,0.6-0.37c0.16-0.17,0.25-0.39,0.24-0.63 c0.01-0.24-0.08-0.47-0.23-0.66c-0.18-0.19-0.39-0.34-0.62-0.46c-0.27-0.14-0.55-0.26-0.83-0.37c-0.28-0.11-0.57-0.23-0.85-0.36 c-0.28-0.12-0.54-0.26-0.79-0.44c-0.23-0.17-0.43-0.38-0.58-0.62c-0.15-0.28-0.22-0.59-0.21-0.91c0.01-0.22,0.04-0.44,0.11-0.66 c0.09-0.25,0.22-0.47,0.39-0.67c0.2-0.23,0.45-0.41,0.74-0.53c0.38-0.15,0.78-0.22,1.19-0.2c0.29,0,0.58,0.04,0.86,0.12 c0.33,0.1,0.64,0.27,0.91,0.49v-0.54h0.59v2.47h-0.45c-0.02-0.34-0.09-0.68-0.23-1c-0.13-0.3-0.33-0.56-0.58-0.76 c-0.29-0.22-0.64-0.33-1-0.31c-0.36-0.02-0.72,0.1-1,0.33c-0.43,0.34-0.5,0.97-0.16,1.4c0.02,0.03,0.04,0.05,0.07,0.07 c0.2,0.22,0.45,0.39,0.72,0.51c0.29,0.14,0.6,0.28,0.93,0.41c0.33,0.13,0.71,0.32,1.06,0.5c0.32,0.16,0.6,0.39,0.83,0.67 c0.23,0.3,0.35,0.67,0.33,1.05c0.02,0.42-0.11,0.84-0.36,1.18c-0.24,0.31-0.56,0.54-0.92,0.69 C158.96,133.82,158.56,133.91,158.16,133.93z"></path> <path class="st0" d="M165.25,133.93c-0.62,0.01-1.23-0.15-1.77-0.46c-0.52-0.31-0.95-0.77-1.24-1.31c-0.32-0.61-0.48-1.3-0.46-1.99 c0-0.65,0.15-1.28,0.45-1.85c0.29-0.57,0.72-1.05,1.26-1.4c0.56-0.36,1.21-0.55,1.87-0.53c0.38,0,0.75,0.06,1.11,0.19 c0.34,0.13,0.66,0.32,0.92,0.58c0.27,0.28,0.49,0.62,0.62,1c0.17,0.44,0.24,0.91,0.23,1.39l-4.99,0.08 c-0.01,0.64,0.06,1.28,0.23,1.89c0.12,0.49,0.39,0.93,0.76,1.27c0.38,0.31,0.86,0.46,1.35,0.44c0.31,0,0.61-0.05,0.91-0.15 c0.3-0.11,0.59-0.25,0.86-0.43c0.24-0.17,0.46-0.37,0.64-0.6l0.34,0.29c-0.24,0.38-0.56,0.7-0.93,0.95 c-0.34,0.23-0.71,0.4-1.11,0.51C165.95,133.88,165.6,133.93,165.25,133.93z M163.25,129.01h3.62c0-0.34-0.05-0.67-0.15-1 c-0.09-0.3-0.26-0.57-0.49-0.78c-0.25-0.21-0.57-0.33-0.9-0.31c-0.5-0.01-0.99,0.16-1.37,0.49c-0.4,0.44-0.64,1-0.68,1.6H163.25z"></path> <path class="st0" d="M169.51,133.28c0.23,0.02,0.45-0.06,0.61-0.22c0.12-0.18,0.19-0.4,0.2-0.62c0-0.26,0-0.56,0-0.9v-3.69 c0.01-0.16,0.02-0.31,0.05-0.47h-0.5h-0.51v-0.59h0.44c0.29,0.02,0.58-0.02,0.85-0.12c0.14-0.07,0.27-0.15,0.39-0.26h0.41 c0,0.15,0,0.34,0.05,0.56s0,0.51,0,0.85c0.16-0.26,0.36-0.49,0.59-0.7c0.24-0.23,0.52-0.42,0.83-0.57c0.31-0.15,0.65-0.23,1-0.22 c0.25-0.01,0.49,0.07,0.7,0.21c0.21,0.16,0.32,0.42,0.3,0.68c0,0.1-0.03,0.19-0.07,0.28c-0.05,0.11-0.13,0.21-0.23,0.28 c-0.12,0.08-0.26,0.13-0.41,0.12c-0.2,0-0.38-0.09-0.5-0.25c-0.12-0.15-0.17-0.35-0.14-0.54c-0.25-0.01-0.51,0.06-0.73,0.18 c-0.26,0.14-0.5,0.33-0.71,0.55c-0.23,0.24-0.42,0.52-0.58,0.82v3.99c0,0.15,0,0.3-0.05,0.46h0.44h0.45v0.58h-2.9L169.51,133.28z"></path> <path class="st0" d="M178.34,133.75l-1.99-4.63c-0.15-0.36-0.27-0.67-0.35-0.92c-0.08-0.21-0.14-0.42-0.18-0.64 c-0.03-0.14-0.05-0.28-0.06-0.42l-0.62,0.05v-0.59h2.61v0.47c-0.28,0-0.47,0.07-0.55,0.22c-0.07,0.19-0.07,0.39,0,0.58 c0.06,0.27,0.15,0.53,0.25,0.78l1.1,2.49c0.07,0.16,0.15,0.33,0.22,0.51s0.14,0.35,0.2,0.54l0,0l0.16-0.45 c0.06-0.16,0.12-0.32,0.17-0.47l1.13-3.11c0.08-0.22,0.16-0.42,0.24-0.59s0.15-0.3,0.19-0.39l-0.91,0.05v-0.59h2.24v0.43 c-0.2-0.01-0.39,0.07-0.53,0.21c-0.17,0.19-0.31,0.4-0.41,0.64c-0.12,0.29-0.27,0.64-0.44,1.07l-1.87,4.76H178.34z"></path> <path class="st0" d="M182.8,133.28c0.23,0.02,0.46-0.06,0.62-0.22c0.12-0.18,0.19-0.4,0.2-0.62c0-0.26,0-0.56,0-0.9v-3.23 c0-0.15,0-0.3,0-0.43c0-0.13,0-0.31,0-0.5h-0.5h-0.51v-0.6c0.33,0.01,0.67-0.01,1-0.05c0.18-0.03,0.35-0.08,0.52-0.14 c0.1-0.04,0.19-0.11,0.27-0.19h0.42v5.73c0,0.18,0,0.35,0,0.5c-0.01,0.15-0.02,0.31-0.05,0.46h0.45h0.45v0.58h-2.9L182.8,133.28z M184.16,125.06c-0.2,0-0.39-0.09-0.53-0.24c-0.3-0.34-0.3-0.85,0-1.2c0.25-0.3,0.7-0.33,1-0.08c0.03,0.02,0.05,0.05,0.08,0.08 c0.15,0.16,0.22,0.38,0.22,0.6c0,0.22-0.08,0.44-0.23,0.6c-0.14,0.16-0.33,0.25-0.54,0.26L184.16,125.06z"></path> <path class="st0" d="M190.25,133.93c-0.61,0.01-1.22-0.14-1.76-0.43c-0.53-0.29-0.98-0.73-1.28-1.26c-0.55-1.05-0.62-2.28-0.2-3.39 c0.18-0.46,0.43-0.88,0.76-1.26c0.33-0.37,0.72-0.67,1.17-0.89c0.47-0.22,0.99-0.33,1.51-0.32c0.47-0.01,0.94,0.07,1.38,0.24 c0.36,0.13,0.67,0.35,0.92,0.64c0.21,0.24,0.33,0.54,0.33,0.86c0,0.19-0.06,0.38-0.17,0.54c-0.12,0.15-0.31,0.23-0.5,0.22 c-0.19,0.02-0.39-0.06-0.5-0.22c-0.09-0.12-0.14-0.27-0.15-0.42c-0.01-0.1-0.01-0.19,0-0.29c0.03-0.11,0.09-0.2,0.17-0.28 c-0.07-0.21-0.21-0.39-0.4-0.51c-0.18-0.1-0.38-0.17-0.59-0.21c-0.17-0.01-0.33-0.01-0.5,0c-0.63-0.01-1.24,0.27-1.63,0.78 c-0.48,0.64-0.72,1.44-0.66,2.24c-0.01,0.58,0.09,1.15,0.3,1.69c0.18,0.46,0.47,0.86,0.86,1.16c0.37,0.28,0.82,0.43,1.28,0.42 c0.45,0,0.89-0.12,1.28-0.35c0.39-0.21,0.74-0.51,1-0.87l0.37,0.28c-0.23,0.39-0.53,0.73-0.89,1c-0.32,0.24-0.68,0.42-1.07,0.54 C190.94,133.92,190.59,133.95,190.25,133.93z"></path> <path class="st0" d="M197.77,133.93c-0.62,0.01-1.23-0.15-1.77-0.46c-0.53-0.31-0.96-0.76-1.25-1.31c-0.31-0.62-0.47-1.3-0.45-1.99 c0-0.64,0.15-1.28,0.44-1.85c0.29-0.57,0.72-1.05,1.26-1.4c0.56-0.36,1.21-0.54,1.87-0.53c0.38,0,0.76,0.06,1.12,0.19 c0.34,0.13,0.65,0.32,0.91,0.58c0.28,0.28,0.5,0.62,0.63,1c0.16,0.44,0.24,0.91,0.23,1.39l-4.99,0.08 c-0.01,0.64,0.07,1.28,0.24,1.89c0.12,0.49,0.38,0.93,0.76,1.27c0.38,0.31,0.86,0.46,1.35,0.44c0.31,0,0.61-0.05,0.9-0.15 c0.3-0.11,0.59-0.25,0.86-0.43c0.25-0.16,0.46-0.36,0.64-0.6l0.34,0.29c-0.23,0.38-0.55,0.7-0.92,0.95 c-0.34,0.23-0.71,0.4-1.11,0.51C198.48,133.88,198.12,133.93,197.77,133.93z M195.77,129.01h3.62c0-0.34-0.05-0.67-0.15-1 c-0.09-0.3-0.26-0.57-0.49-0.78c-0.25-0.21-0.57-0.33-0.9-0.31c-0.5-0.01-0.99,0.16-1.37,0.49c-0.4,0.44-0.64,1-0.69,1.6H195.77z"></path> <path class="st0" d="M205.74,133.7v-0.42c0.23,0.02,0.45-0.06,0.61-0.22c0.13-0.18,0.2-0.4,0.2-0.62c0-0.26,0-0.56,0-0.9v-3.23 c0-0.15,0-0.3,0-0.46c0-0.16,0.02-0.31,0.05-0.47h-0.51h-0.5v-0.6c0.31,0.01,0.63-0.01,0.94-0.05c0.16-0.03,0.33-0.07,0.48-0.14 c0.09-0.05,0.18-0.11,0.25-0.19h0.42c0.01,0.11,0.01,0.22,0,0.33c0,0.12,0,0.26,0,0.42c0.3-0.25,0.64-0.45,1-0.6 c0.35-0.15,0.72-0.23,1.1-0.23c0.41-0.02,0.82,0.07,1.2,0.25c0.31,0.16,0.57,0.4,0.75,0.7c0.34-0.28,0.72-0.5,1.12-0.68 c0.39-0.17,0.81-0.27,1.24-0.27c0.69-0.06,1.36,0.21,1.81,0.74c0.45,0.73,0.65,1.58,0.56,2.43v2.64v0.5c0,0.15,0,0.3,0,0.46h0.44 h0.45v0.58h-2.89v-0.42c0.23,0.02,0.45-0.06,0.61-0.22c0.13-0.18,0.2-0.4,0.2-0.62c0-0.26,0-0.56,0-0.9v-1.99 c0.04-0.63-0.09-1.26-0.39-1.82c-0.27-0.41-0.74-0.64-1.23-0.6c-0.3,0-0.6,0.07-0.88,0.2c-0.28,0.12-0.54,0.29-0.77,0.5 c0.05,0.16,0.09,0.32,0.11,0.49c0.01,0.18,0.01,0.36,0,0.54c0,0.55,0,1.11,0,1.67c0,0.56,0,1.12,0,1.68v0.5c0,0.15,0,0.3,0,0.46 h0.44h0.45v0.58h-2.89v-0.42c0.23,0.02,0.45-0.06,0.61-0.22c0.11-0.19,0.18-0.4,0.19-0.62c0.02-0.3,0.02-0.6,0-0.9v-1.99 c0.05-0.64-0.07-1.27-0.35-1.84c-0.25-0.42-0.72-0.65-1.21-0.61c-0.3,0-0.6,0.07-0.87,0.19c-0.27,0.12-0.51,0.28-0.72,0.49 c0,0.12,0,0.24,0,0.37v4.55c0,0.15,0,0.3-0.05,0.46h0.44h0.45v0.58L205.74,133.7z"></path> <path class="st0" d="M221.94,133.93c-0.63,0.01-1.25-0.15-1.8-0.46c-0.53-0.3-0.97-0.74-1.28-1.28c-0.32-0.57-0.49-1.21-0.48-1.86 c-0.01-0.69,0.15-1.38,0.47-1.99c0.29-0.58,0.73-1.07,1.28-1.42c0.54-0.34,1.17-0.52,1.81-0.51c0.63-0.01,1.25,0.15,1.79,0.47 c0.53,0.31,0.98,0.75,1.3,1.29c0.32,0.56,0.49,1.2,0.48,1.84c0.01,0.69-0.15,1.38-0.47,1.99c-0.3,0.58-0.74,1.07-1.29,1.43 C223.21,133.77,222.58,133.94,221.94,133.93z M222.05,133.36c0.44,0.02,0.87-0.13,1.2-0.43c0.3-0.3,0.52-0.68,0.63-1.1 c0.13-0.47,0.19-0.95,0.19-1.44c0-0.42-0.04-0.84-0.12-1.26c-0.07-0.39-0.2-0.76-0.38-1.12c-0.15-0.32-0.38-0.59-0.66-0.81 c-0.29-0.2-0.64-0.3-1-0.29c-0.44-0.02-0.87,0.13-1.21,0.42c-0.32,0.3-0.56,0.69-0.69,1.11c-0.15,0.47-0.22,0.97-0.22,1.47 c0,0.56,0.08,1.12,0.24,1.67c0.14,0.48,0.39,0.92,0.74,1.28C221.11,133.2,221.57,133.38,222.05,133.36L222.05,133.36z"></path> <path class="st0" d="M229.8,133.93c-0.55,0.01-1.09-0.14-1.56-0.43c-0.48-0.3-0.86-0.74-1.1-1.25c-0.28-0.59-0.42-1.24-0.41-1.89 c-0.01-0.71,0.15-1.42,0.47-2.05c0.6-1.2,1.84-1.94,3.18-1.91c0.31,0,0.62,0.04,0.93,0.12c0.25,0.06,0.5,0.15,0.73,0.27v-1.93 c0-0.16,0-0.3,0-0.44c-0.01-0.16-0.01-0.33,0-0.49h-0.5h-0.51v-0.6c0.33,0.01,0.67-0.01,1-0.06c0.18-0.02,0.35-0.07,0.52-0.14 c0.1-0.05,0.19-0.11,0.28-0.18h0.41v9.2c0,0.15,0,0.3,0,0.45c0,0.15,0,0.32,0,0.51h0.51h0.5v0.59h-1.99c0-0.14-0.05-0.27-0.07-0.39 v-0.35c-0.28,0.3-0.62,0.54-1,0.71C230.75,133.85,230.27,133.94,229.8,133.93z M230.31,133.23c0.33-0.01,0.65-0.1,0.94-0.27 c0.31-0.17,0.57-0.39,0.79-0.67c0-0.11,0-0.23,0-0.36v-4.5c-0.23-0.17-0.48-0.3-0.75-0.38c-0.27-0.08-0.55-0.12-0.83-0.12 c-0.45-0.01-0.88,0.14-1.24,0.41c-0.36,0.3-0.64,0.7-0.79,1.15c-0.19,0.56-0.27,1.15-0.24,1.74c0.01,0.53,0.1,1.05,0.27,1.55 c0.14,0.41,0.39,0.78,0.71,1.07c0.31,0.25,0.69,0.39,1.09,0.39H230.31z"></path> <path class="st0" d="M238.62,133.93c-0.62,0.01-1.23-0.15-1.77-0.46c-0.52-0.31-0.95-0.77-1.24-1.31c-0.32-0.62-0.47-1.3-0.46-1.99 c0-0.65,0.15-1.28,0.45-1.85c0.29-0.57,0.72-1.05,1.26-1.4c0.56-0.36,1.21-0.54,1.87-0.53c0.38-0.01,0.75,0.06,1.11,0.19 c0.34,0.12,0.66,0.32,0.92,0.58c0.28,0.28,0.5,0.62,0.63,1c0.16,0.44,0.23,0.91,0.22,1.39l-4.99,0.08 c-0.01,0.64,0.07,1.28,0.23,1.89c0.12,0.49,0.39,0.93,0.76,1.27c0.38,0.31,0.87,0.46,1.36,0.44c0.31,0,0.61-0.05,0.9-0.15 c0.3-0.11,0.59-0.25,0.86-0.43c0.24-0.16,0.46-0.36,0.64-0.6l0.34,0.29c-0.24,0.38-0.55,0.7-0.92,0.95 c-0.34,0.23-0.71,0.4-1.11,0.51C239.33,133.88,238.98,133.93,238.62,133.93z M236.63,129.01h3.62c0-0.34-0.05-0.67-0.15-1 c-0.09-0.3-0.26-0.57-0.49-0.78c-0.25-0.21-0.57-0.33-0.9-0.31c-0.5-0.01-0.99,0.16-1.37,0.49c-0.4,0.44-0.63,1-0.68,1.6H236.63z"></path> <path class="st0" d="M242.88,133.28c0.23,0.02,0.45-0.06,0.61-0.22c0.13-0.18,0.2-0.4,0.2-0.62c0-0.26,0-0.56,0-0.9v-3.23 c0-0.15,0-0.3,0-0.46c-0.01-0.16-0.01-0.31,0-0.47h-0.51h-0.5v-0.59h0.44c0.28,0.02,0.57-0.02,0.84-0.12 c0.14-0.07,0.27-0.15,0.39-0.26h0.42c0,0.15,0,0.34,0,0.56c0,0.22,0,0.51,0,0.85c0.16-0.26,0.35-0.5,0.58-0.7 c0.25-0.23,0.53-0.42,0.83-0.57c0.31-0.15,0.65-0.23,1-0.22c0.25,0,0.49,0.07,0.69,0.21c0.21,0.16,0.32,0.42,0.3,0.68 c0,0.1-0.03,0.19-0.07,0.28c-0.05,0.11-0.13,0.21-0.23,0.28c-0.29,0.2-0.68,0.14-0.91-0.13c-0.12-0.15-0.17-0.35-0.14-0.54 c-0.25-0.01-0.51,0.06-0.73,0.18c-0.26,0.15-0.5,0.33-0.71,0.55c-0.23,0.25-0.42,0.52-0.58,0.82v3.49c0,0.18,0,0.35,0,0.5 c-0.01,0.15-0.02,0.31-0.05,0.46h0.45h0.44v0.58h-2.9L242.88,133.28z"></path> <path class="st0" d="M249.02,133.7v-0.42c0.23,0.02,0.45-0.06,0.61-0.22c0.12-0.18,0.19-0.4,0.2-0.62c0-0.26,0-0.56,0-0.9v-3.23 c0-0.15,0-0.3,0-0.46c0-0.16,0.02-0.31,0.05-0.47h-0.51h-0.5v-0.6c0.31,0.01,0.63-0.01,0.94-0.05c0.16-0.03,0.33-0.07,0.48-0.14 c0.09-0.05,0.18-0.12,0.26-0.19h0.41c0,0.07,0,0.14,0,0.23s0,0.18,0,0.28s0,0.23,0,0.36c0.22-0.18,0.45-0.35,0.69-0.49 c0.25-0.14,0.52-0.25,0.8-0.34c0.27-0.08,0.55-0.12,0.83-0.12c0.69-0.06,1.37,0.23,1.8,0.77c0.43,0.72,0.63,1.56,0.57,2.4v2.64 c0,0.18,0,0.35,0,0.5c-0.01,0.15-0.02,0.31-0.05,0.46h0.45h0.45v0.58h-2.76v-0.42c0.23,0.02,0.46-0.06,0.62-0.22 c0.12-0.18,0.19-0.4,0.2-0.62c0-0.26,0-0.56,0-0.9v-1.99c0.03-0.64-0.11-1.28-0.4-1.84c-0.26-0.41-0.74-0.65-1.23-0.61 c-0.35,0.01-0.69,0.1-1,0.27c-0.31,0.16-0.59,0.38-0.82,0.65c0.01,0.09,0.01,0.17,0,0.26v3.92c0,0.18,0,0.35,0,0.5 c0,0.15-0.02,0.31-0.05,0.46h0.45h0.45v0.58L249.02,133.7z"></path> <path class="st0" d="M261.06,133.93c-1.25,0.02-2.41-0.66-2.99-1.77c-0.31-0.62-0.47-1.3-0.45-1.99c0-0.65,0.15-1.28,0.45-1.85 c0.29-0.57,0.72-1.05,1.26-1.4c0.55-0.36,1.2-0.54,1.86-0.53c0.38,0,0.76,0.06,1.12,0.19c0.34,0.13,0.65,0.33,0.92,0.58 c0.27,0.28,0.49,0.62,0.62,1c0.16,0.44,0.24,0.91,0.23,1.39l-4.99,0.08c-0.01,0.64,0.07,1.28,0.24,1.89 c0.12,0.49,0.38,0.93,0.76,1.27c0.38,0.31,0.86,0.46,1.35,0.44c0.31,0,0.61-0.05,0.9-0.15c0.3-0.1,0.59-0.25,0.86-0.43 c0.25-0.16,0.46-0.36,0.64-0.6l0.34,0.29c-0.23,0.38-0.55,0.7-0.92,0.95c-0.34,0.23-0.71,0.4-1.11,0.51 C261.79,133.89,261.42,133.93,261.06,133.93z M259.06,129.01h3.64c0-0.34-0.05-0.67-0.15-1c-0.09-0.3-0.26-0.57-0.49-0.78 c-0.24-0.21-0.56-0.33-0.89-0.31c-0.5-0.02-1,0.16-1.38,0.49c-0.41,0.44-0.65,1-0.7,1.6H259.06z"></path> <rect x="34.1" y="33.58" class="st1" width="7.88" height="7.88"></rect> <rect x="34.1" y="21.18" class="st1" width="7.88" height="7.88"></rect> <rect x="47.2" y="21.18" class="st1" width="7.88" height="7.88"></rect> <rect x="47.2" y="33.58" class="st1" width="7.88" height="7.88"></rect> <polygon class="st0" points="0.79,39.75 8.83,39.75 44.58,7.59 80.94,39.77 262.38,39.77 262.38,33.6 83.15,33.6 44.58,0.02 "></polygon> <polygon class="st1" points="65.15,4.22 75.19,4.22 75.19,24.02 65.15,15.28 "></polygon> <rect x="0.01" y="116.03" class="st1" width="119.47" height="1.7"></rect> <rect x="137.41" y="116.03" class="st1" width="125.98" height="1.7"></rect> <path class="st0" d="M119.27,102.86c-1.3,0.5-2.63,0.9-3.99,1.2c-1.35,0.3-2.72,0.45-4.1,0.46c-3.56,0.09-7.05-0.96-9.97-2.99 c-2.78-1.99-4.8-5.08-6.05-9.26c-1.32-4.77-1.96-9.71-1.87-14.67c-0.01-4.54,0.57-9.07,1.72-13.46c0.87-3.92,2.9-7.48,5.82-10.23 c2.86-2.46,6.54-3.75,10.31-3.61c4.38,0.01,8.61,1.56,11.97,4.37c3.64,2.93,6.37,7.19,8.2,12.78h1.51V46.92h-1.51 c-0.32,1.24-0.94,2.37-1.79,3.32c-0.57,0.55-1.33,0.87-2.12,0.89c-1.64-0.37-3.23-0.91-4.75-1.62c-1.88-0.81-3.83-1.46-5.81-1.94 c-2.45-0.48-4.94-0.71-7.43-0.69c-8.87,0-16.22,3.01-22.06,9.04c-5.8,5.91-8.96,13.9-8.78,22.18c-0.07,4.57,0.91,9.1,2.86,13.24 c1.54,3.12,3.65,5.92,6.22,8.26c2.7,2.48,5.8,4.48,9.17,5.92c4.16,1.62,8.61,2.39,13.07,2.24c4,0.01,7.98-0.41,11.89-1.26 c1.75-0.39,3.48-0.87,5.19-1.44l2.5-0.78l0.1-0.72h-1.46l-1.42-1.44l-1.5-1.63L119.27,102.86z"></path> <path class="st1" d="M135.06,81.94h-5.92v1.68h-1.78v-1.68h-5.92c-0.14-0.01-0.25,0.1-0.26,0.24c0,0,0,0,0,0v1 c0,0.12,0.05,0.23,0.13,0.31l3.87,4.07c0.08,0.08,0.13,0.19,0.13,0.3v2.82l-1,0.24c-0.51,0.1-0.86,0.57-0.81,1.09v0.29 c0.04,0.29,0.22,0.54,0.47,0.68c0.22,0.14,0.49,0.2,0.75,0.16h0.11l0.48-0.11v0.94l-1,0.24c-0.51,0.1-0.86,0.57-0.81,1.09v0.29 c0.05,0.29,0.22,0.54,0.47,0.69c0.23,0.13,0.49,0.19,0.75,0.16h0.11l0,0l0.48-0.11v0.95l-1,0.23c-0.52,0.1-0.87,0.58-0.81,1.1v0.29 c0.04,0.29,0.22,0.54,0.47,0.68c0.22,0.14,0.49,0.2,0.75,0.16h0.11l0.48-0.1v0.94l-1,0.24c-0.51,0.1-0.86,0.57-0.81,1.09v0.29 c0.05,0.29,0.22,0.54,0.47,0.69c0.23,0.13,0.49,0.19,0.75,0.16h0.11l0,0l0.48-0.11v0.94l-1,0.24c-0.52,0.1-0.87,0.58-0.81,1.1v0.29 c0.05,0.28,0.22,0.53,0.47,0.68c0.22,0.14,0.49,0.19,0.75,0.16h0.11l0,0l0.48-0.11v1l-1,0.24c-0.51,0.1-0.86,0.57-0.81,1.09v0.29 c0.05,0.29,0.22,0.54,0.47,0.69c0.23,0.13,0.49,0.19,0.75,0.16h0.11l0,0l0.48-0.11v2.57c0,0.15,0.02,0.3,0.07,0.44l2.39,6.66 c0.1,0.28,0.4,0.42,0.67,0.32c0.15-0.05,0.27-0.17,0.32-0.32l2.38-6.66c0.05-0.14,0.08-0.29,0.08-0.44v-4.06l1-0.24 c0.51-0.1,0.86-0.57,0.81-1.09v-0.29c-0.05-0.29-0.22-0.54-0.47-0.69c-0.26-0.15-0.57-0.2-0.87-0.14l-0.46,0.11v-0.95l1-0.23 c0.52-0.1,0.87-0.58,0.81-1.1v-0.29c-0.05-0.28-0.22-0.53-0.47-0.68c-0.26-0.16-0.57-0.21-0.87-0.14l-0.46,0.11v-0.95l1-0.24 c0.53-0.09,0.89-0.59,0.82-1.12v-0.29c-0.05-0.29-0.22-0.54-0.47-0.69c-0.26-0.15-0.57-0.2-0.87-0.14l-0.46,0.11v-0.94l1-0.24 c0.51-0.1,0.86-0.57,0.81-1.09v-0.3c-0.05-0.28-0.22-0.53-0.47-0.68c-0.26-0.16-0.57-0.21-0.87-0.14l-0.46,0.11v-1l1-0.24 c0.51-0.1,0.86-0.57,0.81-1.09v-0.29c-0.04-0.29-0.22-0.54-0.47-0.68c-0.26-0.16-0.57-0.21-0.87-0.14l-0.46,0.1v-0.94l1-0.24 c0.51-0.1,0.86-0.57,0.81-1.09v-0.29c-0.05-0.29-0.22-0.54-0.47-0.69c-0.26-0.16-0.57-0.21-0.87-0.14l-0.46,0.11v-1.39 c0-0.11,0.04-0.22,0.12-0.3l3.88-4.06c0.07-0.07,0.11-0.16,0.12-0.26v-1.13c-0.03-0.12-0.14-0.2-0.26-0.2L135.06,81.94z"></path> <path class="st2" d="M126.58,109.13l1.27-0.29v3.82l0.42,4.22l-1.68-4.67c0-0.03,0-0.05,0-0.08L126.58,109.13L126.58,109.13z"></path> <polygon class="st2" points="126.58,105.86 127.85,105.56 127.85,106.5 126.58,106.79 126.58,105.86 "></polygon> <polygon class="st2" points="126.58,102.57 127.85,102.29 127.85,103.23 126.58,103.52 126.58,102.57 "></polygon> <polygon class="st2" points="126.58,99.3 127.85,99.01 127.85,99.95 126.58,100.24 126.58,99.3 "></polygon> <polygon class="st2" points="126.58,96.02 127.85,95.73 127.85,96.68 126.58,96.97 126.58,96.02 "></polygon> <polygon class="st2" points="126.58,92.75 127.85,92.46 127.85,93.4 126.58,93.69 126.58,92.75 "></polygon> <path class="st2" d="M125.41,83.62h-0.77c-0.17-0.02-0.33,0.1-0.36,0.28c-0.01,0.1,0.02,0.19,0.09,0.26l3.04,3.2 c0.28,0.28,0.43,0.66,0.43,1.06v1.77l-1.27,0.29v-2.58c-0.01-0.37-0.17-0.73-0.43-1l-3.56-3.74h2.82v0.52L125.41,83.62z"></path> <path class="st2" d="M124.54,108.67L124.54,108.67c-0.04,0.01-0.09,0.01-0.13,0c-0.04-0.03-0.07-0.07-0.07-0.12v-0.29 c-0.01-0.09,0.05-0.16,0.14-0.18c1.99-0.46,5.83-1.23,7.84-1.59c-2.47,0.77-5.08,1.54-7.71,2.19L124.54,108.67z"></path> <path class="st2" d="M124.54,105.4L124.54,105.4c-0.04,0.02-0.09,0.02-0.13,0c-0.04-0.02-0.07-0.06-0.07-0.11V105 c-0.01-0.09,0.05-0.17,0.14-0.19c1.99-0.45,5.83-1.22,7.84-1.58c-2.47,0.76-5.08,1.54-7.71,2.19L124.54,105.4z"></path> <path class="st2" d="M124.54,102.15L124.54,102.15c-0.04,0.01-0.09,0.01-0.13,0c-0.04-0.03-0.07-0.07-0.07-0.12v-0.29 c-0.01-0.09,0.05-0.16,0.14-0.18c1.99-0.45,5.83-1.23,7.84-1.59c-2.47,0.77-5.08,1.54-7.71,2.19L124.54,102.15z"></path> <path class="st2" d="M124.54,98.85L124.54,98.85c-0.04,0.02-0.09,0.02-0.13,0c-0.04-0.02-0.07-0.06-0.07-0.11v-0.29 c-0.01-0.09,0.05-0.17,0.14-0.19c1.99-0.45,5.83-1.22,7.84-1.58c-2.47,0.76-5.08,1.54-7.71,2.19L124.54,98.85z"></path> <path class="st2" d="M124.54,95.56L124.54,95.56c-0.04,0.01-0.09,0.01-0.13,0c-0.04-0.02-0.06-0.06-0.07-0.11v-0.3 c-0.01-0.09,0.05-0.16,0.14-0.18c1.99-0.45,5.83-1.22,7.84-1.58c-2.47,0.76-5.08,1.53-7.71,2.18L124.54,95.56z"></path> <path class="st2" d="M124.63,92.35L124.63,92.35c-0.04,0.02-0.09,0.02-0.13,0c-0.04-0.02-0.07-0.06-0.08-0.11v-0.29 c-0.01-0.09,0.05-0.17,0.14-0.19c1.99-0.45,5.83-1.22,7.84-1.58c-2.47,0.76-5.08,1.54-7.71,2.19L124.63,92.35z"></path></g></svg>